<?xml version="1.0" encoding="UTF-8"?>
<svg version="1.1" xmlns="http://www.w3.org/2000/svg" width="3454" height="942">
<path d="M0 0 C39.27 0 78.54 0 119 0 C119 250.8 119 501.6 119 760 C114.42016096 756.07442368 110.04730187 752.19304323 105.80859375 747.93798828 C105.23360138 747.36474823 104.65860901 746.79150818 104.06619263 746.20089722 C102.18745822 744.32652328 100.31235796 742.44856328 98.4375 740.5703125 C97.119205 739.25269229 95.80076167 737.93522046 94.48217773 736.6178894 C91.72705066 733.86423153 88.97372701 731.10878651 86.22167969 728.35205078 C82.7116609 724.83634084 79.19717867 721.32513259 75.68132019 717.81526375 C72.95987215 715.09744716 70.24083247 712.37723112 67.52249146 709.65630722 C66.22837506 708.3615284 64.93352835 707.06747907 63.63790894 705.77420425 C61.81996288 703.95882678 60.00530184 702.14022431 58.19140625 700.32080078 C57.66652618 699.79794495 57.14164612 699.27508911 56.6008606 698.73638916 C53.8145892 695.93453988 51.15852469 693.06275246 48.57458496 690.07260132 C45.08473878 686.04650148 41.39662633 682.26874934 37.61523438 678.51757812 C36.91344559 677.8172496 36.2116568 677.11692108 35.48860168 676.39537048 C33.97836912 674.88891646 32.46698341 673.38361774 30.95454407 671.87937927 C28.55529417 669.49300047 26.15927612 667.10341784 23.76403809 664.7130127 C18.678835 659.63918622 13.58971305 654.56930185 8.5 649.5 C2.59777496 643.62144456 -3.30279452 637.74124709 -9.19914246 631.85679626 C-11.54952954 629.51284929 -13.9029287 627.17195622 -16.25646973 624.83117676 C-17.70954057 623.38174145 -19.16246951 621.93216386 -20.61523438 620.48242188 C-21.26167404 619.84114853 -21.90811371 619.19987518 -22.57414246 618.53916931 C-26.29880552 614.81493407 -29.80229108 610.96430045 -33.2458725 606.97997284 C-36.15862925 603.69219629 -39.26740458 600.61002534 -42.38476562 597.51757812 C-43.08655441 596.8172496 -43.7883432 596.11692108 -44.51139832 595.39537048 C-46.02163088 593.88891646 -47.53301659 592.38361774 -49.04545593 590.87937927 C-51.44470583 588.49300047 -53.84072388 586.10341784 -56.23596191 583.7130127 C-61.321165 578.63918622 -66.41028695 573.56930185 -71.5 568.5 C-77.40222504 562.62144456 -83.30279452 556.74124709 -89.19914246 550.85679626 C-91.54952954 548.51284929 -93.9029287 546.17195622 -96.25646973 543.83117676 C-97.70954057 542.38174145 -99.16246951 540.93216386 -100.61523438 539.48242188 C-101.26167404 538.84114853 -101.90811371 538.19987518 -102.57414246 537.53916931 C-106.29880552 533.81493407 -109.80229108 529.96430045 -113.2458725 525.97997284 C-116.15862925 522.69219629 -119.26740458 519.61002534 -122.38476562 516.51757812 C-123.08655441 515.8172496 -123.7883432 515.11692108 -124.51139832 514.39537048 C-126.02163088 512.88891646 -127.53301659 511.38361774 -129.04545593 509.87937927 C-131.44470583 507.49300047 -133.84072388 505.10341784 -136.23596191 502.7130127 C-141.321165 497.63918622 -146.41028695 492.56930185 -151.5 487.5 C-157.40222504 481.62144456 -163.30279452 475.74124709 -169.19914246 469.85679626 C-171.54952954 467.51284929 -173.9029287 465.17195622 -176.25646973 462.83117676 C-177.70954057 461.38174145 -179.16246951 459.93216386 -180.61523438 458.48242188 C-181.26167404 457.84114853 -181.90811371 457.19987518 -182.57414246 456.53916931 C-186.29880552 452.81493407 -189.80229108 448.96430045 -193.2458725 444.97997284 C-196.15862925 441.69219629 -199.26740458 438.61002534 -202.38476562 435.51757812 C-203.43744881 434.46708534 -203.43744881 434.46708534 -204.51139832 433.39537048 C-206.02163088 431.88891646 -207.53301659 430.38361774 -209.04545593 428.87937927 C-211.44470583 426.49300047 -213.84072388 424.10341784 -216.23596191 421.7130127 C-221.321165 416.63918622 -226.41028695 411.56930185 -231.5 406.5 C-237.40222504 400.62144456 -243.30279452 394.74124709 -249.19914246 388.85679626 C-251.54952954 386.51284929 -253.9029287 384.17195622 -256.25646973 381.83117676 C-257.70954057 380.38174145 -259.16246951 378.93216386 -260.61523438 377.48242188 C-261.26167404 376.84114853 -261.90811371 376.19987518 -262.57414246 375.53916931 C-266.94451846 371.1692953 -270.90880811 366.67564788 -275 362 C-296.12 340.88 -317.24 319.76 -339 298 C-339.33 403.93 -339.66 509.86 -340 619 C-380.26 619 -420.52 619 -462 619 C-462 416.05 -462 213.1 -462 4 C-457.81817305 6.09091347 -455.10901172 8.62009628 -451.87823486 11.88798523 C-451.26792884 12.49728797 -450.65762281 13.10659072 -450.02882266 13.73435718 C-447.98220626 15.78001997 -445.94282803 17.8327497 -443.90332031 19.88549805 C-442.43833374 21.35268563 -440.97289909 22.81942593 -439.50704956 24.28575134 C-436.34917684 27.44655972 -433.19448994 30.61050228 -430.04221344 33.77689171 C-425.05440769 38.78695484 -420.05953184 43.78992866 -415.06365967 48.79194641 C-407.15760047 56.70939464 -399.25622477 64.63149801 -391.35686946 72.55563432 C-377.22500068 86.73176827 -363.08763964 100.90241949 -348.94496989 115.06777793 C-343.98368565 120.03745272 -339.02522506 125.00992266 -334.06903887 129.98468149 C-330.97820111 133.08619811 -327.88530452 136.18565566 -324.79190445 139.28461647 C-323.36240959 140.71756827 -321.93378653 142.15139041 -320.50612259 143.58616638 C-318.54965549 145.55216059 -316.59005037 147.51497581 -314.62969971 149.47709656 C-314.07208867 150.03898467 -313.51447764 150.60087279 -312.9399693 151.17978781 C-310.11168695 154.0040721 -307.22335603 156.70063775 -304.19288254 159.30753803 C-299.33308254 163.51728304 -294.81947905 168.04833956 -290.28417969 172.60229492 C-289.32623857 173.5605166 -288.36807483 174.51851576 -287.40970993 175.47631359 C-284.79581804 178.08991189 -282.18503675 180.70659772 -279.57477379 183.32381964 C-276.75176316 186.1532355 -273.92581962 188.9797194 -271.10021973 191.80654907 C-266.20964938 196.69999938 -261.320857 201.59522006 -256.43322754 206.49160767 C-249.35842417 213.57899454 -242.28035749 220.66311532 -235.20140791 227.74636066 C-223.70412804 239.25070033 -212.20871797 250.75690626 -200.71484375 262.26464844 C-199.68404355 263.29669035 -199.68404355 263.29669035 -198.63241911 264.3495816 C-193.0569906 269.9317544 -187.48165275 275.51401775 -181.90631866 281.09628487 C-177.03264025 285.9760161 -172.15892562 290.85571117 -167.28515625 295.73535156 C-166.59879829 296.42253765 -165.91244033 297.10972374 -165.20528364 297.81773365 C-153.7529674 309.28374518 -142.29868041 320.74778603 -130.84299088 332.21042728 C-123.78349188 339.27440127 -116.72577426 346.34014612 -109.67036152 353.40820146 C-104.83539436 358.25160745 -99.99864933 363.09323316 -95.16051388 367.9334743 C-92.37140855 370.7239217 -89.58313366 373.51518594 -86.79707336 376.30867386 C-84.2430846 378.86944562 -81.68676165 381.42786361 -79.12862253 383.98448908 C-77.77323305 385.34027553 -76.42031907 386.69853538 -75.06751633 388.05690289 C-71.54424183 391.57426607 -68.02372855 395.0335709 -64.23455811 398.26445007 C-58.01038091 403.62076896 -52.32150103 409.55599646 -46.53125 415.37109375 C-45.24252928 416.66168285 -43.95358515 417.9520489 -42.66442871 419.24220276 C-39.29542172 422.61500184 -35.92943045 425.99079462 -32.56408691 429.36724854 C-29.12008377 432.82153745 -25.67319751 436.27294685 -22.2265625 439.72460938 C-15.48157161 446.48027913 -8.73976742 453.23911934 -2 460 C-1.99826375 459.06159362 -1.9965275 458.12318723 -1.99473864 457.15634429 C-1.89172257 401.52475866 -1.78356723 345.89318493 -1.66888306 290.26162206 C-1.65511367 283.5801765 -1.64138542 276.89873086 -1.62768555 270.21728516 C-1.62632146 269.55241594 -1.62495738 268.88754673 -1.62355196 268.20252996 C-1.57939404 246.66858449 -1.53838485 225.13463442 -1.49901587 203.6006797 C-1.45737925 180.83575738 -1.41213916 158.07084459 -1.36312145 135.30593693 C-1.33388496 121.67404987 -1.30751381 108.04216347 -1.28482103 94.41026391 C-1.26897914 85.05926517 -1.24955484 75.70827813 -1.22733159 66.3572924 C-1.21461999 60.96429905 -1.20347053 55.57131459 -1.19658089 50.17831039 C-1.19023008 45.23446544 -1.17934944 40.29065127 -1.1649667 35.34682335 C-1.16056348 33.56462444 -1.15777869 31.78242057 -1.15683801 30.00021647 C-1.15530623 27.56278189 -1.1476719 25.12543381 -1.1386652 22.68801689 C-1.13968787 22.00925702 -1.14071054 21.33049714 -1.14176419 20.63116878 C-1.10370662 13.69562326 -0.49814315 6.97400412 0 0 Z " fill="#1B71C8" transform="translate(1379,115)"/>
<path d="M0 0 C169.62 0 339.24 0 514 0 C514 39.27 514 78.54 514 119 C384.97 119 255.94 119 123 119 C123 160.25 123 201.5 123 244 C224.97 244 326.94 244 432 244 C432 283.27 432 322.54 432 363 C330.03 363 228.06 363 123 363 C123 407.88 123 452.76 123 499 C252.03 499 381.06 499 514 499 C514 538.27 514 577.54 514 618 C344.38 618 174.76 618 0 618 C0 414.06 0 210.12 0 0 Z " fill="#1B71C8" transform="translate(1640,116)"/>
<path d="M0 0 C3.09859959 2.65173714 4.60775135 5.80043702 6.44140625 9.40625 C6.76513718 10.03849487 7.0888681 10.67073975 7.42240906 11.32214355 C8.47426845 13.3788394 9.51827669 15.43941838 10.5625 17.5 C11.29000748 18.92482792 12.01820119 20.34930565 12.74707031 21.7734375 C13.83435218 23.89789607 14.92131833 26.02250543 16.00619507 28.14819336 C18.7142491 33.45342196 21.46307089 38.73573567 24.25 44 C27.8114172 50.73979016 31.35079735 57.49066739 34.875 64.25 C35.37660645 65.21196289 35.87821289 66.17392578 36.39501953 67.16503906 C38.44411645 71.09547825 40.49255043 75.02626279 42.54101562 78.95703125 C48.07817846 89.58106669 53.62425596 100.20001957 59.21142578 110.79785156 C63.00941236 118.00661461 66.77569288 125.2317826 70.54125977 132.45751953 C73.65907069 138.43760765 76.79099571 144.40996582 79.9375 150.375 C84.38670606 158.81115695 88.78562792 167.27307962 93.18115234 175.73730469 C96.85230302 182.80294588 100.54676156 189.85574992 104.26171875 196.8984375 C108.04431441 204.07316734 111.79318759 211.26532482 115.54150391 218.45800781 C118.65924746 224.43792581 121.79108061 230.41012676 124.9375 236.375 C129.38670606 244.81115695 133.78562792 253.27307962 138.18115234 261.73730469 C141.45725499 268.04262087 144.74781958 274.33988184 148.0625 280.625 C154.26254041 292.38118209 160.39869289 304.17062235 166.54101562 315.95703125 C172.07817846 326.58106669 177.62425596 337.20001957 183.21142578 347.79785156 C187.00941236 355.00661461 190.77569288 362.2317826 194.54125977 369.45751953 C197.65907069 375.43760765 200.79099571 381.40996582 203.9375 387.375 C208.38670606 395.81115695 212.78562792 404.27307962 217.18115234 412.73730469 C220.85230302 419.80294588 224.54676156 426.85574992 228.26171875 433.8984375 C232.04431441 441.07316734 235.79318759 448.26532482 239.54150391 455.45800781 C242.65924746 461.43792581 245.79108061 467.41012676 248.9375 473.375 C253.38670606 481.81115695 257.78562792 490.27307962 262.18115234 498.73730469 C265.85230302 505.80294588 269.54676156 512.85574992 273.26171875 519.8984375 C277.04431441 527.07316734 280.79318759 534.26532482 284.54150391 541.45800781 C287.65924746 547.43792581 290.79108061 553.41012676 293.9375 559.375 C298.37966949 567.79781487 302.77358898 576.24536027 307.15917969 584.69775391 C309.74997902 589.68747005 312.34919935 594.67211228 314.98046875 599.640625 C315.439375 600.50751953 315.89828125 601.37441406 316.37109375 602.26757812 C317.22171149 603.87163621 318.07443068 605.47458246 318.9296875 607.07617188 C319.30738281 607.78837891 319.68507813 608.50058594 320.07421875 609.234375 C320.56281372 610.15041504 320.56281372 610.15041504 321.0612793 611.08496094 C322.16364173 613.33383765 323.06984248 615.67460619 324 618 C280.44 618 236.88 618 192 618 C188.7 611.4 185.4 604.8 182 598 C178.41245798 591.15076979 178.41245798 591.15076979 174.8046875 584.3125 C171.63360856 578.31252803 168.4784828 572.30433641 165.34069824 566.28689575 C164.6990752 565.05813206 164.05593678 563.83015842 163.41125488 562.60299683 C162.50731443 560.881871 161.60900202 559.15779286 160.7109375 557.43359375 C160.18806152 556.43384521 159.66518555 555.43409668 159.12646484 554.40405273 C158 552 158 552 158 550 C77.15 550 -3.7 550 -87 550 C-85.42330984 545.26992951 -83.66703759 541.19260588 -81.32421875 536.85546875 C-80.96279282 536.17710464 -80.60136688 535.49874054 -80.22898865 534.79981995 C-79.05257848 532.59350391 -77.87000109 530.3905565 -76.6875 528.1875 C-75.04101754 525.10390392 -73.39761021 522.01867157 -71.75390625 518.93359375 C-71.34493103 518.16709503 -70.93595581 517.40059631 -70.5145874 516.61087036 C-66.99934669 510.01708396 -63.55255353 503.38982182 -60.125 496.75 C-55.78235036 488.35291185 -51.30942458 480.03963747 -46.74658203 471.76049805 C-41.45762812 462.10872241 -36.44327478 452.31615441 -31.43041992 442.51904297 C-31.09987106 441.87421463 -30.7693222 441.22938629 -30.42875671 440.5650177 C-29.52843378 438.80788899 -28.6303481 437.04961445 -27.73242188 435.29125977 C-27.16072266 434.20514404 -26.58902344 433.11902832 -26 432 C-25.52757874 430.79540131 -25.05515747 429.59080261 -24.56842041 428.34970093 C-23.18081532 425.96540804 -22.50467735 425.15106893 -19.83251953 424.35119152 C-16.92591824 424.09336417 -14.09078192 424.06924576 -11.17285156 424.11352539 C-10.07011398 424.10274963 -8.9673764 424.09197388 -7.83122253 424.08087158 C-4.18368034 424.05344741 -0.5381745 424.07537637 3.109375 424.09765625 C5.63715908 424.08827515 8.16493348 424.07581985 10.69268799 424.06040955 C16.66749735 424.03141592 22.64151852 424.0334427 28.6163094 424.05048412 C35.41929242 424.06815783 42.22196765 424.04622671 49.02490568 424.02097714 C63.01670581 423.96993246 77.0081594 423.96859626 91 424 C88.67331787 419.47854393 86.34607499 414.95737708 84.01834106 410.4364624 C83.22868164 408.90260373 82.43916808 407.36866994 81.64981079 405.83465576 C77.42399374 397.62256603 73.19656283 389.41227213 68.875 381.25 C64.70085667 373.3585679 60.59540954 365.432475 56.5 357.5 C52.36173427 349.48490256 48.21596801 341.47461068 44 333.5 C39.78403115 325.52538774 35.63838468 317.51503717 31.5 309.5 C26.94348684 300.67557822 22.36822576 291.86212418 17.72900391 283.08081055 C12.0987766 272.41543018 6.55595644 261.7041964 1 251 C-1.42365168 254.04410652 -3.23013159 257.168989 -5.00390625 260.62890625 C-5.57544434 261.73838623 -6.14698242 262.84786621 -6.73583984 263.9909668 C-7.34474309 265.18146941 -7.95362949 266.37198064 -8.5625 267.5625 C-9.5007197 269.38691839 -10.44028455 271.21063974 -11.37994385 273.03431702 C-12.00970797 274.25671112 -12.63906156 275.47931681 -13.26800537 276.70213318 C-16.10452654 282.21447148 -18.98150982 287.70490047 -21.875 293.1875 C-22.5083728 294.38838257 -22.5083728 294.38838257 -23.15454102 295.61352539 C-24.10227594 297.40941366 -25.05100331 299.20477816 -26 301 C-26.66 301 -27.32 301 -28 301 C-28.40375854 302.30892212 -28.40375854 302.30892212 -28.81567383 303.64428711 C-29.9563728 306.87638511 -31.30896064 309.68683784 -32.94921875 312.69140625 C-33.83903442 314.33375244 -33.83903442 314.33375244 -34.74682617 316.00927734 C-35.06251556 316.58716003 -35.37820496 317.16504272 -35.70346069 317.76043701 C-37.40693032 320.87998675 -39.09413491 324.0083019 -40.78125 327.13671875 C-41.13080246 327.78437195 -41.48035492 328.43202515 -41.84049988 329.0993042 C-45.54422716 335.97931997 -49.11880844 342.92428547 -52.6875 349.875 C-56.97890235 358.225662 -61.33592825 366.53066288 -65.875 374.75 C-71.32577042 384.62165027 -76.47456482 394.63805296 -81.61322021 404.67419434 C-86.41045507 414.03842635 -91.30910201 423.32759666 -96.40234375 432.53515625 C-100.93257909 440.77306388 -105.21578623 449.13254172 -109.5 457.5 C-114.66641352 467.59047446 -119.91464956 477.61450575 -125.40234375 487.53515625 C-129.93257909 495.77306388 -134.21578623 504.13254172 -138.5 512.5 C-143.66641352 522.59047446 -148.91464956 532.61450575 -154.40234375 542.53515625 C-159.32112516 551.479607 -163.95187583 560.56862313 -168.60269165 569.65414429 C-173.6190673 579.44869911 -178.72412482 589.18066387 -184.0703125 598.80078125 C-187.57747744 605.12824797 -190.75366055 611.50732111 -194 618 C-236.57 618 -279.14 618 -323 618 C-321.43842869 613.31528608 -319.70353947 609.19596201 -317.4375 604.86328125 C-316.91641914 603.85455711 -316.91641914 603.85455711 -316.3848114 602.82545471 C-315.26076951 600.65224869 -314.13052807 598.48233783 -313 596.3125 C-312.21949404 594.80696608 -311.43930353 593.30126858 -310.65942383 591.79541016 C-305.93729004 582.68617696 -301.18385524 573.59340545 -296.38671875 564.5234375 C-293.56934813 559.19366322 -290.785545 553.84645636 -288 548.5 C-284.34793069 541.49224107 -280.6853026 534.4903402 -277 527.5 C-271.29908817 516.68452967 -265.65017659 505.8420372 -260 495 C-253.94963593 483.39004918 -247.89409849 471.78320334 -241.78857422 460.20214844 C-238.50876325 453.97690786 -235.25197093 447.73982239 -232 441.5 C-227.94780821 433.72472845 -223.8780867 425.95908057 -219.7890625 418.203125 C-216.50913682 411.97753359 -213.25213914 405.74014515 -210 399.5 C-205.94780821 391.72472845 -201.8780867 383.95908057 -197.7890625 376.203125 C-194.50913682 369.97753359 -191.25213914 363.74014515 -188 357.5 C-183.94780821 349.72472845 -179.8780867 341.95908057 -175.7890625 334.203125 C-171.99096987 326.9940065 -168.22447536 319.76854023 -164.45874023 312.54248047 C-161.34092931 306.56239235 -158.20900429 300.59003418 -155.0625 294.625 C-151.1805243 287.26437076 -147.33514361 279.88512986 -143.5 272.5 C-139.2699593 264.35443804 -135.02056566 256.21976942 -130.73828125 248.1015625 C-127.47421845 241.91037241 -124.23450225 235.70667833 -121 229.5 C-116.94782963 221.72471734 -112.87808664 213.95908047 -108.7890625 206.203125 C-105.50913682 199.97753359 -102.25213914 193.74014515 -99 187.5 C-94.94780821 179.72472845 -90.8780867 171.95908057 -86.7890625 164.203125 C-83.50913682 157.97753359 -80.25213914 151.74014515 -77 145.5 C-72.94780821 137.72472845 -68.8780867 129.95908057 -64.7890625 122.203125 C-60.99096987 114.9940065 -57.22447536 107.76854023 -53.45874023 100.54248047 C-50.34092931 94.56239235 -47.20900429 88.59003418 -44.0625 82.625 C-40.1805243 75.26437076 -36.33514361 67.88512986 -32.5 60.5 C-28.2747957 52.36375123 -24.03418289 44.2362596 -19.75146484 36.13012695 C-17.4333663 31.73856044 -15.13591504 27.33703463 -12.85546875 22.92578125 C-12.0502478 21.37141357 -12.0502478 21.37141357 -11.22875977 19.78564453 C-10.18597701 17.77119588 -9.14594745 15.75531883 -8.10913086 13.73779297 C-5.63417613 8.96182863 -3.10617268 4.39427746 0 0 Z " fill="#1B71C8" transform="translate(3130,116)"/>
<path d="M0 0 C1.2759906 -0.00101212 1.2759906 -0.00101212 2.57775879 -0.00204468 C57.06804912 0.06600776 110.31469416 13.73883325 158.4375 39.25 C159.50581055 39.81605957 159.50581055 39.81605957 160.59570312 40.39355469 C169.26854209 45.02589781 177.72641508 49.93534336 186 55.25 C186.73275146 55.71897705 187.46550293 56.1879541 188.22045898 56.67114258 C193.31160172 59.99820344 193.31160172 59.99820344 194.4375 62.25 C193.48803711 64.39111328 193.48803711 64.39111328 191.96484375 67.0703125 C191.40216797 68.06804687 190.83949219 69.06578125 190.25976562 70.09375 C189.32680664 71.71796875 189.32680664 71.71796875 188.375 73.375 C187.73884766 74.49648437 187.10269531 75.61796875 186.44726562 76.7734375 C181.60347007 85.30064385 176.65554226 93.76767608 171.69116211 102.22509766 C166.91706108 110.37489952 162.29977026 118.60623337 157.70727539 126.859375 C152.95995608 135.36913696 148.0804258 143.79680097 143.14257812 152.19726562 C139.82802647 157.83947396 136.58363813 163.51203909 133.4375 169.25 C128.90948612 166.74564632 124.60585634 164.06343502 120.33813477 161.13964844 C75.19709608 130.24554982 20.74478448 116.14172156 -33.68066406 125.70654297 C-56.65291042 130.03865246 -77.99117456 137.12888398 -98.5625 148.25 C-99.4604126 148.72904785 -99.4604126 148.72904785 -100.37646484 149.21777344 C-145.56208049 173.47933321 -179.91153718 215.72305115 -195.02734375 264.6875 C-200.22734628 282.72899214 -202.79640638 300.76920654 -202.8125 319.5 C-202.81317474 320.20797729 -202.81384949 320.91595459 -202.81454468 321.64538574 C-202.79633763 333.72329253 -202.01101794 345.40264352 -199.5625 357.25 C-199.39621094 358.06791016 -199.22992187 358.88582031 -199.05859375 359.72851562 C-191.71728258 394.61333869 -174.64708576 426.12409418 -150.5625 452.25 C-150.02931152 452.8284668 -149.49612305 453.40693359 -148.94677734 454.00292969 C-140.00548598 463.57515363 -130.23286847 471.67211533 -119.5625 479.25 C-118.9859668 479.66056641 -118.40943359 480.07113281 -117.81542969 480.49414062 C-72.52489053 512.23807673 -16.70283895 522.89475631 37.4375 514.25 C58.75144049 510.45431638 79.14693695 502.95989107 98.4375 493.25 C102.3975 491.27 106.3575 489.29 110.4375 487.25 C110.4375 531.47 110.4375 575.69 110.4375 621.25 C32.2910717 650.55491061 -59.20277813 646.62825289 -135.30371094 612.59423828 C-149.83288525 605.98888193 -164.08788438 598.82723867 -177.5625 590.25 C-178.55894531 589.62351562 -179.55539063 588.99703125 -180.58203125 588.3515625 C-195.79413129 578.48762896 -210.13727296 567.42165538 -223.5625 555.25 C-224.14789551 554.72100098 -224.73329102 554.19200195 -225.33642578 553.64697266 C-234.57304214 545.27588897 -243.46426542 536.73835069 -251.5625 527.25 C-252.36300781 526.33863281 -253.16351562 525.42726563 -253.98828125 524.48828125 C-300.63565986 470.97896821 -327.9564801 400.19418321 -329.5625 329.25 C-329.60246094 327.9815625 -329.64242187 326.713125 -329.68359375 325.40625 C-331.01909836 245.59020999 -301.31247178 168.41497769 -247.6796875 109.5859375 C-245.77169797 107.48081252 -243.91202931 105.34386366 -242.0625 103.1875 C-236.4487761 96.75699872 -230.37478395 90.78309139 -223.88671875 85.23828125 C-222.10277804 83.71218743 -220.33807425 82.16358292 -218.58203125 80.60546875 C-158.75683667 27.82372435 -79.34782618 0.05721173 0 0 Z " fill="#1B71C8" transform="translate(2575.5625,118.75)"/>
<path d="M0 0 C0.90017853 -0.00067474 1.80035706 -0.00134949 2.72781372 -0.00204468 C51.9041421 0.05612128 100.12265426 10.97609616 144.5 32.25 C145.32064941 32.63913574 146.14129883 33.02827148 146.98681641 33.42919922 C163.22372319 41.16573825 178.60602121 50.17446593 193.5 60.25 C192.90861433 64.11935194 191.75769222 66.96555664 189.83203125 70.36328125 C189.27580078 71.35134766 188.71957031 72.33941406 188.14648438 73.35742188 C187.54126953 74.41509766 186.93605469 75.47277344 186.3125 76.5625 C185.68537109 77.67044922 185.05824219 78.77839844 184.41210938 79.91992188 C179.59861109 88.39764164 174.68833916 96.81846038 169.75317383 105.22583008 C165.57897453 112.35178875 161.51601297 119.53385821 157.5 126.75 C149.7276063 140.71370066 141.73741575 154.55497282 133.5 168.25 C130.1253455 167.61904477 127.88947369 166.35229214 125.078125 164.40625 C124.22629639 163.82391602 123.37446777 163.24158203 122.49682617 162.64160156 C121.59037354 162.01737305 120.6839209 161.39314453 119.75 160.75 C72.36444803 128.78506398 16.31039782 115.87186279 -40.19628906 126.77001953 C-79.67052673 134.79831323 -113.94540378 153.56707487 -143.5625 180.5625 C-144.06249512 181.01753906 -144.56249023 181.47257813 -145.07763672 181.94140625 C-177.37870854 212.06743102 -200.11902364 259.02632391 -202.61302185 303.25430298 C-202.67925862 305.33656704 -202.71616273 307.41680284 -202.73828125 309.5 C-202.7480751 310.26732452 -202.75786896 311.03464905 -202.76795959 311.82522583 C-203.22723992 357.17765762 -192.21891871 400.44138374 -163.74951172 436.65820312 C-162.62860978 438.08615949 -161.53326389 439.53408971 -160.44140625 440.984375 C-128.21900073 482.4401014 -78.20843038 508.60386393 -26.58349609 515.64794922 C17.72345286 520.99598623 59.9742552 512.32490644 99.65600586 492.1328125 C101.5 491.25 101.5 491.25 102.5 491.25 C102.5 535.14 102.5 579.03 102.5 624.25 C10.06631929 649.7489464 -82.78841512 644.30688881 -167.5 596.25 C-180.4598824 588.73442966 -192.76383606 580.56032867 -204.5 571.25 C-205.469375 570.48171875 -206.43875 569.7134375 -207.4375 568.921875 C-210.15184991 566.72830153 -212.8289812 564.49608399 -215.5 562.25 C-216.56242275 561.3749062 -217.6249268 560.49991111 -218.6875 559.625 C-225.58452369 553.88823256 -232.09013997 547.84043815 -238.4375 541.5 C-239.13504395 540.80326172 -239.83258789 540.10652344 -240.55126953 539.38867188 C-245.05909909 534.83225494 -249.34409627 530.12869626 -253.5 525.25 C-254.01328857 524.64881348 -254.52657715 524.04762695 -255.05541992 523.42822266 C-308.95081674 459.69181301 -335.55542654 376.56900065 -328.6796875 293.40258789 C-321.13775012 213.24443029 -283.64140677 136.83146514 -222.5859375 83.71484375 C-220.79858 82.25456752 -218.99924384 80.80881455 -217.1875 79.37890625 C-214.3531103 77.13364115 -211.62002994 74.79091562 -208.875 72.4375 C-151.03581769 24.33730597 -74.60268809 0.0505967 0 0 Z " fill="#1B71C8" transform="translate(329.5,117.75)"/>
<path d="M0 0 C43.23 0 86.46 0 131 0 C131 203.94 131 407.88 131 618 C87.77 618 44.54 618 0 618 C0 414.06 0 210.12 0 0 Z " fill="#1B71C8" transform="translate(650,116)"/>
</svg>
