<?xml version="1.0" encoding="UTF-8"?>
<svg version="1.1" xmlns="http://www.w3.org/2000/svg" width="3741" height="3178">
<path d="M0 0 C97.02 0 194.04 0 294 0 C294 483.78 294 967.56 294 1466 C196.98 1466 99.96 1466 0 1466 C0 1408.58 0 1351.16 0 1292 C-2.97 1292.33 -5.94 1292.66 -9 1293 C-9.19932129 1293.66604248 -9.39864258 1294.33208496 -9.60400391 1295.01831055 C-21.59235719 1334.42826095 -41.1411954 1369.36516031 -70 1399 C-70.67579102 1399.70157227 -71.35158203 1400.40314453 -72.04785156 1401.12597656 C-80.96215873 1410.35541611 -89.92252587 1419.14605359 -100.28466797 1426.73779297 C-102.06173485 1428.04542687 -103.81462373 1429.38138094 -105.56640625 1430.72265625 C-158.29434012 1470.73530347 -224.27693614 1490.28990474 -290.0625 1490.1875 C-290.79166626 1490.18689575 -291.52083252 1490.1862915 -292.27209473 1490.18566895 C-375.77407559 1490.00044029 -462.23553824 1468.69535152 -527.45507812 1414.28466797 C-528.99194793 1413.00669564 -530.55068186 1411.75516871 -532.109375 1410.50390625 C-540.31091003 1403.8102712 -547.81431342 1396.39634592 -555.3125 1388.9375 C-555.82455994 1388.43070709 -556.33661987 1387.92391418 -556.86419678 1387.40176392 C-563.71512897 1380.60536555 -569.99688076 1373.57111501 -576 1366 C-577.0003351 1364.79130638 -578.00376423 1363.58515949 -579.01171875 1362.3828125 C-621.98268273 1310.38063622 -647.56247198 1244.74299878 -664 1180 C-664.29712891 1178.8346875 -664.59425781 1177.669375 -664.90039062 1176.46875 C-675.21066249 1135.49721215 -681.36608088 1093.60223468 -685.1875 1051.5625 C-685.26640472 1050.71049011 -685.34530945 1049.85848022 -685.42660522 1048.98065186 C-688.47188451 1015.64111663 -689.38065062 982.3099717 -689.31785583 948.84743881 C-689.31240774 945.82379786 -689.31004581 942.80016476 -689.3079834 939.77651978 C-689.27504791 908.76043631 -688.68066751 877.91707979 -686 847 C-685.85393368 845.25814391 -685.70793698 843.51628198 -685.56201172 841.77441406 C-678.53794776 759.43609644 -661.61969191 676.34858171 -621.01367188 593.96972656 C-620.32831994 592.63797815 -619.64744356 591.30391845 -618.97070312 589.96777344 C-607.19025484 566.72497091 -592.43230951 545.19098472 -576 525 C-575.58443848 524.48002441 -575.16887695 523.96004883 -574.74072266 523.42431641 C-567.69976144 514.64850627 -559.86407641 506.65588405 -551.9375 498.6875 C-551.17731064 497.9194101 -551.17731064 497.9194101 -550.40176392 497.13580322 C-543.60863034 490.28816201 -536.60030429 483.96160952 -529 478 C-528.26966553 477.42096924 -527.53933105 476.84193848 -526.78686523 476.24536133 C-451.68015819 417.09447429 -354.87383156 396.2440239 -250.13989258 403.52148438 C-187.80345301 411.71213442 -129.03230315 436.44108093 -82.78125 479.44140625 C-80.49882104 481.54111266 -78.18252118 483.56397023 -75.8125 485.5625 C-71.10937252 489.65596281 -67.07684818 494.29441712 -63 499 C-61.71609375 500.45212891 -61.71609375 500.45212891 -60.40625 501.93359375 C-35.7512479 530.11584819 -19.53561704 563.27642802 -9 599 C-6.03 599.33 -3.06 599.66 0 600 C0 402 0 204 0 0 Z M-301 674 C-301.56170898 674.40234863 -302.12341797 674.80469727 -302.70214844 675.21923828 C-318.10973054 686.32032579 -332.32549815 700.27436346 -343 716 C-343.46035645 716.67015137 -343.92071289 717.34030273 -344.39501953 718.03076172 C-372.31275766 759.12192415 -383.54588524 807.00977797 -383.38818359 856.20336914 C-383.39226492 858.39469156 -383.3976154 860.58601191 -383.40411377 862.77732849 C-383.41760713 868.64509383 -383.41256457 874.51269816 -383.40297651 880.38046575 C-383.39528626 886.57244955 -383.40245105 892.76442119 -383.40713501 898.95640564 C-383.41256525 909.3460432 -383.40547279 919.7356164 -383.39111328 930.12524414 C-383.37478783 942.07400387 -383.38008572 954.02260996 -383.3965925 965.97136599 C-383.41028061 976.29998608 -383.41209161 986.62856039 -383.40427649 996.95718664 C-383.39964052 1003.09559385 -383.39886113 1009.23392925 -383.40888596 1015.37233162 C-383.41766112 1021.14696757 -383.4113448 1026.92140867 -383.39420319 1032.69602394 C-383.39029409 1034.7935733 -383.39127419 1036.89113955 -383.39799118 1038.98868179 C-383.54964748 1091.2321554 -369.40973318 1147.19635833 -334 1187 C-333.27296875 1187.8353125 -332.5459375 1188.670625 -331.796875 1189.53125 C-329.56746979 1192.05686989 -327.29618922 1194.53503106 -325 1197 C-324.27683594 1197.78890625 -323.55367187 1198.5778125 -322.80859375 1199.390625 C-292.34554611 1231.34847532 -246.24949954 1250.00029624 -202.43475342 1251.23306274 C-175.0206282 1251.83605622 -148.66573465 1249.68557175 -122 1243 C-120.85893799 1242.71817871 -120.85893799 1242.71817871 -119.69482422 1242.43066406 C-79.93268933 1232.38040154 -41.30336195 1208.21150888 -19.66748047 1172.8203125 C-4.97596941 1147.83555812 0.17085703 1121.25174661 0.13371277 1092.53636169 C0.13597833 1091.23277759 0.13824388 1089.92919349 0.14057809 1088.58610684 C0.14664314 1085.00139061 0.14656881 1081.4166979 0.14538372 1077.83197773 C0.14517835 1073.95243978 0.15071136 1070.07290912 0.15544128 1066.19337463 C0.1637196 1058.60463943 0.16649486 1051.015912 0.16705366 1043.42717265 C0.16753023 1037.25246826 0.16959196 1031.07776641 0.17275429 1024.90306282 C0.18155367 1007.36219781 0.18617486 989.8213389 0.18542381 972.28047168 C0.18538386 971.33640967 0.1853439 970.39234767 0.18530273 969.41967773 C0.18526185 968.47445092 0.18522097 967.52922411 0.18517885 966.55535407 C0.18477273 951.24974094 0.19433565 935.94415246 0.2084411 920.63854646 C0.22284 904.88909023 0.22970934 889.139646 0.22884732 873.39018303 C0.22851654 864.56170584 0.23121148 855.73325448 0.24202538 846.90478325 C0.25117682 839.38585559 0.25326784 831.86696546 0.24651595 824.34803461 C0.24327383 820.5198424 0.24310934 816.691722 0.2518692 812.86353683 C0.34730167 768.26897837 -6.26978058 729.49013371 -38 696 C-38.82113281 695.11441406 -39.64226562 694.22882812 -40.48828125 693.31640625 C-76.84719475 655.34154104 -132.96306738 641.78932342 -183.77856445 640.07250977 C-225.38215042 639.18758066 -267.11424615 649.10100236 -301 674 Z " fill="#000000" transform="translate(882,279)"/>
<path d="M0 0 C96.69 0 193.38 0 293 0 C293 285.45 293 570.9 293 865 C304.38827551 865.33117622 304.38827551 865.33117622 308.56420898 860.52978516 C309.58239623 858.97557753 310.55763773 857.39267309 311.49609375 855.7890625 C312.04364319 854.93119644 312.59119263 854.07333038 313.15533447 853.18946838 C314.95329109 850.35626285 316.69369893 847.49179273 318.4375 844.625 C319.69765041 842.62251778 320.96246266 840.6229624 322.23168945 838.6262207 C324.86412851 834.48174167 327.4803078 830.32763508 330.08789062 826.16748047 C335.49010203 817.59734073 341.17458162 809.22205109 346.87600708 800.8493042 C349.91096332 796.38974536 352.92967213 791.91921945 355.94921875 787.44921875 C356.54069199 786.57424744 357.13216522 785.69927612 357.74156189 784.79779053 C363.86955951 775.72636757 369.93745905 766.61524143 376 757.5 C386.64531154 741.49654077 397.37186318 725.54895866 408.1328125 709.62304688 C409.28650152 707.91539376 410.44014841 706.20771218 411.59375 704.5 C412.1448494 703.68426514 412.69594879 702.86853027 413.26374817 702.02807617 C417.13073804 696.29960008 420.97577322 690.55688057 424.79711914 684.79785156 C431.21128797 675.14157119 438.19736546 666.32568811 445.8359375 657.62890625 C449.22106408 653.76809195 452.46021886 649.79866552 455.69140625 645.80859375 C458.41344091 642.4970152 461.20139731 639.24686941 464 636 C467.55457492 631.875357 471.06792298 627.72792096 474.5 623.5 C478.4337857 618.65403211 482.48447759 613.91901472 486.55859375 609.19140625 C489.58958284 605.66682097 492.56992581 602.10951168 495.5 598.5 C499.4337857 593.65403211 503.48447759 588.91901472 507.55859375 584.19140625 C510.58958284 580.66682097 513.56992581 577.10951168 516.5 573.5 C520.4337857 568.65403211 524.48447759 563.91901472 528.55859375 559.19140625 C531.58958284 555.66682097 534.56992581 552.10951168 537.5 548.5 C541.4337857 543.65403211 545.48447759 538.91901472 549.55859375 534.19140625 C552.58958284 530.66682097 555.56992581 527.10951168 558.5 523.5 C562.4337857 518.65403211 566.48447759 513.91901472 570.55859375 509.19140625 C573.58958284 505.66682097 576.56992581 502.10951168 579.5 498.5 C583.4337857 493.65403211 587.48447759 488.91901472 591.55859375 484.19140625 C594.58958284 480.66682097 597.56992581 477.10951168 600.5 473.5 C604.4337857 468.65403211 608.48447759 463.91901472 612.55859375 459.19140625 C616.32445245 454.81227794 619.99074486 450.36095313 623.62890625 445.875 C627.02671013 441.75509282 630.51539529 437.71470233 634.015625 433.68164062 C636.17059009 431.18836307 638.16932165 428.74601752 640 426 C642.34513056 425.62740451 642.34513056 425.62740451 645.35297585 425.63085651 C647.06755452 425.6218968 647.06755452 425.6218968 648.81677115 425.61275607 C650.08328556 425.6214946 651.34979997 425.63023312 652.6546936 425.63923645 C654.00523128 425.63792928 655.35576823 425.6353045 656.70630109 425.63146895 C660.4301936 425.62473448 664.15382914 425.636797 667.87768888 425.65180314 C671.88859795 425.66471681 675.89949165 425.66037736 679.91041565 425.65809631 C686.8638212 425.65652061 693.81714252 425.66596074 700.77052689 425.68280983 C710.82403214 425.70715516 720.87749652 425.71500051 730.93102805 425.7187738 C747.24082567 425.72534532 763.55057835 425.74532543 779.86035156 425.77368164 C795.70702896 425.80120412 811.55369417 425.82244656 827.40039062 425.83520508 C828.37661273 425.83599325 829.35283484 425.83678142 830.35863943 425.83759347 C835.25588939 425.84150849 840.15313943 425.84529964 845.05038953 425.84902918 C885.70029094 425.88014688 926.35014291 425.93300169 967 426 C966.05742609 427.27167386 965.11276224 428.5417988 964.16723633 429.8112793 C963.64140457 430.51874802 963.11557281 431.22621674 962.57380676 431.9551239 C960.42764096 434.74367664 958.10406499 437.25273116 955.6875 439.8125 C952.16513928 443.58334335 948.79264264 447.40863118 945.5625 451.4375 C941.71954521 456.21541338 937.63168671 460.68994984 933.44384766 465.16162109 C929.52093146 469.37429105 925.88088976 473.76413555 922.27734375 478.25390625 C919.78173531 481.26319052 917.16234857 484.13938654 914.5 487 C911.02580757 490.73327255 907.6993129 494.52371111 904.5 498.5 C900.86500611 503.01777813 897.0328971 507.27818516 893.0859375 511.51953125 C890.09558642 514.75211747 887.26213671 518.06705866 884.5 521.5 C880.86500611 526.01777813 877.0328971 530.27818516 873.0859375 534.51953125 C870.09558642 537.75211747 867.26213671 541.06705866 864.5 544.5 C860.8643595 549.01858176 857.03163598 553.27983329 853.08374023 557.52172852 C850.11284372 560.7329905 847.30038923 564.02627815 844.5625 567.4375 C840.71954521 572.21541338 836.63168671 576.68994984 832.44384766 581.16162109 C828.52093146 585.37429105 824.88088976 589.76413555 821.27734375 594.25390625 C818.78173531 597.26319052 816.16234857 600.13938654 813.5 603 C810.02580757 606.73327255 806.6993129 610.52371111 803.5 614.5 C799.86500611 619.01777813 796.0328971 623.27818516 792.0859375 627.51953125 C789.09558642 630.75211747 786.26213671 634.06705866 783.5 637.5 C779.86500611 642.01777813 776.0328971 646.27818516 772.0859375 650.51953125 C769.09558642 653.75211747 766.26213671 657.06705866 763.5 660.5 C759.8643595 665.01858176 756.03163598 669.27983329 752.08374023 673.52172852 C749.11284372 676.7329905 746.30038923 680.02627815 743.5625 683.4375 C739.71954521 688.21541338 735.63168671 692.68994984 731.44384766 697.16162109 C727.52093146 701.37429105 723.88088976 705.76413555 720.27734375 710.25390625 C717.78173531 713.26319052 715.16234857 716.13938654 712.5 719 C709.02580757 722.73327255 705.6993129 726.52371111 702.5 730.5 C698.86500611 735.01777813 695.0328971 739.27818516 691.0859375 743.51953125 C688.09558642 746.75211747 685.26213671 750.06705866 682.5 753.5 C678.86500611 758.01777813 675.0328971 762.27818516 671.0859375 766.51953125 C668.09558642 769.75211747 665.26213671 773.06705866 662.5 776.5 C658.8643595 781.01858176 655.03163598 785.27983329 651.08374023 789.52172852 C648.11284372 792.7329905 645.30038923 796.02627815 642.5625 799.4375 C638.63120644 804.32678026 634.4573066 808.93160999 630.16040039 813.49780273 C628.76203115 814.98776108 627.38058298 816.49354621 626 818 C625.20207031 818.86882813 624.40414062 819.73765625 623.58203125 820.6328125 C621.7806105 822.77779441 621.7806105 822.77779441 622.19995117 824.78857422 C623.2384311 827.65905064 624.66792486 830.11910612 626.21875 832.75 C626.5480954 833.31133133 626.8774408 833.87266266 627.21676636 834.45100403 C628.30601849 836.30376439 629.40279065 838.15194248 630.5 840 C631.27187168 841.30805437 632.04351516 842.61624343 632.81494141 843.92456055 C638.61885172 853.74889491 644.52736542 863.50836556 650.47167969 873.24829102 C655.97233397 882.26770896 661.37239156 891.34428527 666.75 900.4375 C671.91933234 909.17686793 677.11676815 917.88994674 682.5 926.5 C688.31002009 935.79266727 693.90037584 945.20890586 699.47949219 954.64111328 C705.09373663 964.1310118 710.75949592 973.58595133 716.5 983 C722.65966452 993.1014442 728.72663264 1003.2542296 734.75 1013.4375 C739.91952803 1022.17675781 745.11676372 1030.88993966 750.5 1039.5 C756.31002009 1048.79266727 761.90037584 1058.20890586 767.47949219 1067.64111328 C773.76862834 1078.27179822 780.13878203 1088.84826105 786.56958008 1099.39379883 C792.09764118 1108.47016103 797.52640216 1117.6035265 802.9375 1126.75 C809.84494862 1138.45031459 809.84494862 1138.45031459 817 1150 C822.29764141 1158.3340077 827.28050249 1166.85722335 832.30810547 1175.35546875 C837.97977194 1184.94038576 843.70147996 1194.4913027 849.5 1204 C855.65969027 1214.10142831 861.72663286 1224.25422998 867.75 1234.4375 C872.91952803 1243.17675781 878.11676372 1251.88993966 883.5 1260.5 C889.31002009 1269.79266727 894.90037584 1279.20890586 900.47949219 1288.64111328 C906.76862834 1299.27179822 913.13878203 1309.84826105 919.56958008 1320.39379883 C925.09764118 1329.47016103 930.52640216 1338.6035265 935.9375 1347.75 C942.84494862 1359.45031459 942.84494862 1359.45031459 950 1371 C954.86041048 1378.64617595 959.44958649 1386.45325966 964.0625 1394.25 C970.2344246 1404.68131716 976.4465805 1415.08506991 982.75 1425.4375 C983.43578125 1426.56494629 984.1215625 1427.69239258 984.828125 1428.85400391 C986.19441394 1431.10014922 987.56078688 1433.34624343 988.92724609 1435.59228516 C989.61125488 1436.71683105 990.29526367 1437.84137695 991 1439 C991.35934631 1439.59069275 991.71869263 1440.1813855 992.08892822 1440.78997803 C994.58684475 1444.89761085 997.07618049 1449.01033721 999.5625 1453.125 C1000.21250977 1454.19290771 1000.86251953 1455.26081543 1001.53222656 1456.36108398 C1002.12100586 1457.33762939 1002.70978516 1458.3141748 1003.31640625 1459.3203125 C1003.83662354 1460.17898926 1004.35684082 1461.03766602 1004.89282227 1461.92236328 C1006 1464 1006 1464 1006 1466 C890.5 1466 775 1466 656 1466 C648.08 1450.655 648.08 1450.655 640 1435 C635.5094069 1426.75052234 635.5094069 1426.75052234 630.9921875 1418.515625 C627.5563197 1412.23145264 624.27977116 1405.86664088 621 1399.5 C616.27684996 1390.33240512 611.44208102 1381.24103414 606.46875 1372.20703125 C602.7095264 1365.35666888 599.08603795 1358.44239934 595.5 1351.5 C591.42607314 1343.61338072 587.27828982 1335.77768255 583 1328 C578.1457943 1319.17533581 573.47770065 1310.26443237 568.85546875 1301.31640625 C565.32267761 1294.49533696 561.70224126 1287.73045971 558 1281 C553.1457943 1272.17533581 548.47770065 1263.26443237 543.85546875 1254.31640625 C540.32267761 1247.49533696 536.70224126 1240.73045971 533 1234 C528.14500538 1225.1739016 523.47609399 1216.26157677 518.85327148 1207.31201172 C515.34268237 1200.53355638 511.74383084 1193.81209831 508.0625 1187.125 C502.9530148 1177.84118737 498.06657232 1168.45211714 493.21337891 1159.03222656 C489.07797098 1151.02578509 484.81440689 1143.10087076 480.46875 1135.20703125 C476.7095264 1128.35666888 473.08603795 1121.44239934 469.5 1114.5 C465.42607314 1106.61338072 461.27828982 1098.77768255 457 1091 C452.72170726 1083.22231214 448.57410288 1075.38653278 444.5 1067.5 C440.21142653 1059.20161678 435.85073152 1050.94910081 431.375 1042.75 C430.87806641 1041.83927734 430.38113281 1040.92855469 429.86914062 1039.99023438 C427.65209249 1035.94665837 425.41848379 1031.92800722 423 1028 C422.39865234 1028.69222656 422.39865234 1028.69222656 421.78515625 1029.3984375 C416.15469776 1035.85878216 410.4151242 1042.21815105 404.671875 1048.578125 C400.68295423 1053.00121401 396.72432093 1057.44615005 392.8125 1061.9375 C389.9673071 1065.1751333 387.07146164 1068.3668629 384.18359375 1071.56640625 C382.29151315 1073.67511146 380.42094242 1075.79919801 378.5625 1077.9375 C374.91062947 1082.13164365 371.15733816 1086.23094292 367.41015625 1090.33984375 C364.83006864 1093.18755795 362.29798144 1096.07244018 359.77734375 1098.97265625 C356.94688384 1102.20124678 354.06038793 1105.37913175 351.18359375 1108.56640625 C349.29151315 1110.67511146 347.42094242 1112.79919801 345.5625 1114.9375 C341.91062947 1119.13164365 338.15733816 1123.23094292 334.41015625 1127.33984375 C331.83006864 1130.18755795 329.29798144 1133.07244018 326.77734375 1135.97265625 C323.94688384 1139.20124678 321.06038793 1142.37913175 318.18359375 1145.56640625 C316.29151315 1147.67511146 314.42094242 1149.79919801 312.5625 1151.9375 C308.92289544 1156.12007587 305.17875277 1160.20461759 301.4296875 1164.2890625 C300.62789062 1165.18367188 299.82609375 1166.07828125 299 1167 C297.70710792 1168.20241679 297.70710792 1168.20241679 296.38809681 1169.42912483 C292.66725407 1173.96100885 293.30748773 1179.24332086 293.36076355 1184.84494019 C293.35240982 1186.0436525 293.34405609 1187.24236481 293.33544922 1188.47740173 C293.3172946 1191.80361011 293.32153801 1195.12843351 293.33513759 1198.45457396 C293.3444674 1202.09665678 293.32474382 1205.73860416 293.30871296 1209.38064766 C293.28194247 1216.44899652 293.28080119 1223.51711761 293.28863304 1230.58550359 C293.29658597 1238.76226559 293.27263036 1246.93872949 293.24865723 1255.11547852 C293.20112495 1276.70194297 293.19697047 1298.28848529 293.1875 1319.875 C293.125625 1368.09625 293.06375 1416.3175 293 1466 C196.31 1466 99.62 1466 0 1466 C0 982.22 0 498.44 0 0 Z " fill="#000000" transform="translate(2098,279)"/>
<path d="M0 0 C2.14470385 0.00030706 4.28940779 0.00017161 6.4341116 -0.00036526 C12.12660273 -0.00058906 17.81907242 0.00516524 23.51155853 0.01224518 C28.87249309 0.01798179 34.23342268 0.01821055 39.59436035 0.0189209 C55.22558873 0.02414774 70.8568132 0.03810901 86.48803711 0.05102539 C121.44741211 0.07165039 156.40678711 0.09227539 192.42553711 0.11352539 C192.42553711 75.68352539 192.42553711 151.25352539 192.42553711 229.11352539 C124.11553711 229.11352539 55.80553711 229.11352539 -14.57446289 229.11352539 C-14.57446289 294.12352539 -14.57446289 359.13352539 -14.57446289 426.11352539 C53.73553711 426.11352539 122.04553711 426.11352539 192.42553711 426.11352539 C192.42553711 501.35352539 192.42553711 576.59352539 192.42553711 654.11352539 C124.11553711 654.11352539 55.80553711 654.11352539 -14.57446289 654.11352539 C-14.57446289 922.07352539 -14.57446289 1190.03352539 -14.57446289 1466.11352539 C-111.59446289 1466.11352539 -208.61446289 1466.11352539 -308.57446289 1466.11352539 C-308.57446289 1198.15352539 -308.57446289 930.19352539 -308.57446289 654.11352539 C-357.08446289 654.11352539 -405.59446289 654.11352539 -455.57446289 654.11352539 C-455.57446289 578.87352539 -455.57446289 503.63352539 -455.57446289 426.11352539 C-407.06446289 426.11352539 -358.55446289 426.11352539 -308.57446289 426.11352539 C-308.60926758 415.35629883 -308.64407227 404.59907227 -308.67993164 393.51586914 C-308.69528761 386.63891379 -308.70985678 379.76197114 -308.72094727 372.88500977 C-308.73863459 362.00597816 -308.75923597 351.12701706 -308.80078125 340.24804688 C-308.83104573 332.31914521 -308.8501219 324.39030166 -308.85672837 316.46134382 C-308.86057923 312.27793225 -308.86937308 308.09468665 -308.89165306 303.91132927 C-309.31662204 220.74082607 -290.15478988 137.86166918 -230.51196289 76.80102539 C-225.4735027 71.88291059 -220.10594391 67.46236229 -214.57446289 63.11352539 C-213.6115332 62.33364258 -212.64860352 61.55375977 -211.65649414 60.75024414 C-176.62410911 32.9108203 -134.13107178 16.79536961 -90.57446289 8.11352539 C-89.62087891 7.92064941 -88.66729492 7.72777344 -87.68481445 7.52905273 C-58.78027141 1.79116577 -29.41131534 -0.05573772 0 0 Z " fill="#000000" transform="translate(1776.574462890625,278.886474609375)"/>
<path d="M0 0 C97.02 0 194.04 0 294 0 C294 343.2 294 686.4 294 1040 C196.98 1040 99.96 1040 0 1040 C0 696.8 0 353.6 0 0 Z " fill="#000000" transform="translate(3222,705)"/>
<path d="M0 0 C2.34456798 0.00546369 4.6891258 0.00781479 7.03369904 0.00987244 C32.44808908 0.04455758 57.68112204 0.80689592 82.98578644 3.31785583 C84.50466188 3.46390155 86.02354204 3.60989808 87.54242706 3.75584412 C178.73298247 12.67332694 271.65219572 40.21824923 340.50922394 103.06394958 C342.18830849 104.59207543 343.88159467 106.10471441 345.58734894 107.60301208 C350.0949443 111.57269199 354.28420912 115.57880502 358.15375519 120.17332458 C360.29947741 122.68505486 362.54792773 125.08700768 364.79828644 127.50535583 C414.63826954 182.44175826 437.38183473 256.44322841 444.67328644 328.88035583 C444.79276642 330.04856873 444.9122464 331.21678162 445.03534698 332.4203949 C447.50834701 358.74414605 447.12727459 385.20829184 447.10185206 411.61652958 C447.09748634 417.31689325 447.09899828 423.01725598 447.09975433 428.71762085 C447.10027573 438.56588579 447.09716934 448.41414404 447.09151649 458.2624073 C447.08334905 472.50090361 447.08078093 486.73939673 447.0795285 500.97789513 C447.07734618 524.08543929 447.0707171 547.19297965 447.06122589 570.30052185 C447.05202316 592.73183677 447.04494854 615.16315073 447.04071808 637.59446716 C447.04052079 638.63388001 447.04052079 638.63388001 447.04031951 639.6942911 C447.03900085 646.65388497 447.03772506 653.61347884 447.03648066 660.57307272 C447.02606161 718.82133664 447.00759711 777.0695948 446.98578644 835.31785583 C478.99578644 835.31785583 511.00578644 835.31785583 543.98578644 835.31785583 C543.98578644 910.88785583 543.98578644 986.45785583 543.98578644 1064.31785583 C498.78609894 1064.37973083 498.78609894 1064.37973083 452.67328644 1064.44285583 C438.44529938 1064.47016785 438.44529938 1064.47016785 423.92987823 1064.49803162 C412.2725296 1064.50706482 412.2725296 1064.50706482 406.80080414 1064.50874329 C403.01078153 1064.51059308 399.22081598 1064.51803366 395.43080902 1064.52900696 C390.57357896 1064.54288059 385.71643004 1064.54680982 380.859182 1064.54400039 C379.09085338 1064.54458653 377.32252147 1064.54845933 375.55421007 1064.5562861 C359.68976383 1064.62315538 343.92932634 1063.61859354 328.42328644 1060.06785583 C327.46349884 1059.85242126 326.50371124 1059.63698669 325.51483917 1059.4150238 C299.29761672 1053.32993144 274.97626607 1042.28586839 253.98578644 1025.31785583 C253.46033234 1024.89391541 252.93487823 1024.46997498 252.39350128 1024.03318787 C240.30828571 1014.22089626 229.65261988 1003.55666401 220.31342316 991.08982849 C219.45127626 989.93913666 218.58341521 988.79269599 217.70893097 987.65135193 C202.79326795 968.15790244 192.47056992 945.61184546 184.98578644 922.31785583 C182.01578644 921.98785583 179.04578644 921.65785583 175.98578644 921.31785583 C175.65578644 922.47285583 175.32578644 923.62785583 174.98578644 924.81785583 C166.97173757 948.67362921 151.23360827 970.79827689 134.16938019 988.98191833 C132.26145516 991.02295441 130.46280825 993.11142994 128.67328644 995.25535583 C73.53429828 1058.19823791 -20.68705032 1082.15792059 -100.64116669 1087.4931488 C-155.67642804 1090.92521451 -211.34962953 1086.16939238 -264.01421356 1069.31785583 C-264.8674118 1069.04892517 -265.72061005 1068.77999451 -266.59966278 1068.50291443 C-292.39328398 1060.28053762 -318.00955842 1048.17160343 -340.01421356 1032.31785583 C-340.61652802 1031.88392517 -341.21884247 1031.44999451 -341.83940887 1031.00291443 C-361.56530831 1016.70629662 -380.10521028 1000.69673106 -395.01421356 981.31785583 C-395.786362 980.36266052 -396.55851044 979.40746521 -397.35405731 978.42332458 C-440.71095991 923.97034265 -457.22503777 853.7274284 -457.26421356 785.31785583 C-457.26488831 784.25571869 -457.26556305 783.19358154 -457.26625824 782.09925842 C-457.19982292 716.03833743 -440.88905465 647.23339824 -398.01421356 595.31785583 C-397.38531219 594.54683533 -397.38531219 594.54683533 -396.74370575 593.76023865 C-387.05543923 581.90284859 -376.87152004 570.05146563 -365.01421356 560.31785583 C-364.07577606 559.50316833 -363.13733856 558.68848083 -362.17046356 557.84910583 C-343.76880275 541.88635682 -323.50734143 528.72317931 -302.01421356 517.31785583 C-301.22047333 516.89037048 -300.42673309 516.46288513 -299.60894012 516.02244568 C-226.92960382 477.11694614 -141.66223158 464.31019114 2.21578789 459.11506796 C7.54605674 459.12786468 12.87632979 459.12876794 18.20661163 459.13111877 C28.22801997 459.13725089 38.24938287 459.15354532 48.2707715 459.17381775 C59.71041093 459.19643984 71.15005293 459.2072352 82.58970928 459.21720862 C106.05509319 459.23792249 129.52043723 459.27293109 152.98578644 459.31785583 C152.89999963 450.6744346 152.80464042 442.03118652 152.69825935 433.38799667 C152.64909504 429.37115912 152.60278651 425.35433844 152.56391144 421.33738708 C152.03227488 367.13277022 149.18798529 313.9905457 109.79828644 272.75535583 C75.38447988 239.24592317 24.37632778 231.1045854 -21.78936005 231.26194763 C-94.15838581 232.51658514 -156.3119309 258.78655458 -207.04546356 310.25535583 C-210.15479291 313.51274849 -213.09642841 316.8890126 -216.01421356 320.31785583 C-216.80183075 321.2163324 -217.58944794 322.11480896 -218.40093231 323.04051208 C-222.71930788 328.00877543 -226.85093629 333.03015034 -230.69390106 338.38035583 C-231.62963959 339.68202698 -231.62963959 339.68202698 -232.58428192 341.00999451 C-233.81609961 342.73846872 -235.03598992 344.47551393 -236.24297333 346.22142029 C-236.80556854 347.01250183 -237.36816376 347.80358337 -237.94780731 348.61863708 C-238.44337128 349.33189148 -238.93893524 350.04514587 -239.4495163 350.78001404 C-241.01421356 352.31785583 -241.01421356 352.31785583 -245.01421356 352.31785583 C-247.31108856 350.59519958 -247.31108856 350.59519958 -249.76421356 348.25535583 C-250.64593231 347.42906677 -251.52765106 346.60277771 -252.43608856 345.75144958 C-253.28686981 344.94836365 -254.13765106 344.14527771 -255.01421356 343.31785583 C-256.34072797 342.14344176 -257.67347963 340.97601015 -259.01421356 339.81785583 C-262.04176123 337.18095947 -265.03358636 334.50769014 -268.01421356 331.81785583 C-273.3375605 327.01877792 -278.70284695 322.27707634 -284.16655731 317.63816833 C-290.74739535 312.04343844 -297.21187255 306.36050471 -303.53374481 300.47410583 C-306.99134988 297.25495629 -310.49450408 294.1054134 -314.06890106 291.01707458 C-316.35086646 289.02379155 -318.5864993 286.98292556 -320.82671356 284.94285583 C-324.20362338 281.88926717 -327.64638488 278.97356379 -331.20171356 276.13035583 C-337.26741574 271.22782098 -342.89586333 265.89527547 -348.56890106 260.54832458 C-351.69539418 257.60430834 -354.88304199 254.74678894 -358.13921356 251.94676208 C-360.40172538 249.98120495 -362.61112039 247.96112274 -364.82671356 245.94285583 C-368.20362338 242.88926717 -371.64638488 239.97356379 -375.20171356 237.13035583 C-381.26741574 232.22782098 -386.89586333 226.89527547 -392.56890106 221.54832458 C-395.68721595 218.61200925 -398.86784084 215.76311481 -402.11186981 212.96629333 C-404.51944961 210.88005376 -406.89270167 208.75748842 -409.26421356 206.63035583 C-410.47851044 205.54174255 -410.47851044 205.54174255 -411.71733856 204.43113708 C-413.8751922 202.44576494 -415.95763629 200.40745155 -418.01421356 198.31785583 C-405.92953888 180.32404163 -392.98843497 162.91226278 -378.35015106 146.89988708 C-377.09435745 145.51179414 -375.84417979 144.11795208 -374.63140106 142.69212341 C-369.37509646 136.53641743 -363.70254271 130.82006642 -357.981987 125.10032654 C-356.27626759 123.39242528 -354.57872329 121.67667539 -352.88140106 119.96043396 C-346.23449265 113.27979102 -339.41396672 107.16609792 -332.01421356 101.31785583 C-330.9863347 100.45485908 -329.96290959 99.58647043 -328.94780731 98.70848083 C-261.09241741 40.51637807 -171.75237837 13.74815732 -84.32671356 4.06785583 C-83.30171249 3.95202148 -83.30171249 3.95202148 -82.25600433 3.83384705 C-54.92154856 0.79737477 -27.48080626 -0.06679642 0 0 Z M-74.99584198 24.0900116 C-77.05839544 24.32284331 -79.12206648 24.5411004 -81.18657684 24.75584412 C-139.29063286 30.84776416 -197.08633402 45.23386256 -249.09282684 72.32029724 C-251.09012796 73.35726959 -253.0966264 74.37486896 -255.10405731 75.39207458 C-290.3796478 93.45416078 -321.40307759 118.71781084 -349.38921356 146.56785583 C-350.04317108 147.2171405 -350.6971286 147.86642517 -351.37090302 148.53538513 C-355.78730324 152.96641107 -359.93601666 157.57571006 -364.01421356 162.31785583 C-364.97552665 163.41242024 -365.93771747 164.5062146 -366.90093231 165.59910583 C-372.38883293 171.88175257 -377.66034285 178.29516229 -382.70171356 184.94285583 C-383.21886932 185.61768005 -383.73602509 186.29250427 -384.26885223 186.98777771 C-384.74556366 187.62521912 -385.22227509 188.26266052 -385.71343231 188.91941833 C-386.13455292 189.47967712 -386.55567352 190.03993591 -386.98955536 190.61717224 C-388.1207805 192.49473105 -388.58777265 194.17775962 -389.01421356 196.31785583 C-379.09419269 205.61345675 -379.09419269 205.61345675 -368.93608856 214.64598083 C-366.60316282 216.67543656 -364.30910111 218.74550284 -362.01421356 220.81785583 C-358.39397633 224.08489919 -354.74437791 227.31306359 -351.06499481 230.51316833 C-348.7533256 232.54743725 -346.47889926 234.62007893 -344.20171356 236.69285583 C-340.82480374 239.7464445 -337.38204224 242.66214788 -333.82671356 245.50535583 C-327.76101138 250.40789069 -322.13256379 255.7404362 -316.45952606 261.08738708 C-313.33303294 264.03140333 -310.14538514 266.88892273 -306.88921356 269.68894958 C-304.62670175 271.65450672 -302.41730674 273.67458893 -300.20171356 275.69285583 C-296.82480374 278.7464445 -293.38204224 281.66214788 -289.82671356 284.50535583 C-283.76101138 289.40789069 -278.13256379 294.7404362 -272.45952606 300.08738708 C-269.34180081 303.0231472 -266.16353435 305.87325393 -262.91655731 308.66551208 C-259.66549379 311.48933112 -256.4945438 314.40265059 -253.31108856 317.30223083 C-251.27608397 319.08805119 -249.20520607 320.72988879 -247.01421356 322.31785583 C-243.43550856 320.85491269 -241.75251184 319.01389975 -239.45171356 315.94285583 C-235.84679571 311.28874547 -232.01932875 306.95818177 -228.01860809 302.6493988 C-225.40203764 299.83064295 -222.83244528 296.98548866 -220.32671356 294.06785583 C-214.40659459 287.25971902 -207.91320398 281.11952652 -201.01421356 275.31785583 C-200.49423798 274.87345154 -199.97426239 274.42904724 -199.43852997 273.97117615 C-153.24575824 234.62798884 -93.7995405 211.39437315 -32.88140106 211.11473083 C-31.8542952 211.10771652 -30.82718933 211.10070221 -29.76895905 211.09347534 C-26.47566542 211.07607716 -23.18255145 211.06962398 -19.88921356 211.06785583 C-18.76550354 211.06718109 -17.64179352 211.06650635 -16.48403168 211.06581116 C-0.45992744 211.08112715 15.19355799 211.34106472 30.98578644 214.31785583 C32.3890921 214.56728943 32.3890921 214.56728943 33.82074738 214.82176208 C54.85055172 218.63637221 75.26652973 224.91357899 93.98578644 235.31785583 C95.03637238 235.88117615 96.08695831 236.44449646 97.16938019 237.02488708 C123.27515119 251.52054927 142.85321247 274.25897966 154.98578644 301.31785583 C155.28823273 301.97157166 155.59067902 302.62528748 155.90229034 303.29881287 C167.22884165 327.93934768 172.03245176 355.56625137 172.1911087 382.57249451 C172.2010083 383.63723999 172.2109079 384.70198547 172.22110748 385.79899597 C172.25240361 389.27791712 172.27735225 392.75685187 172.30219269 396.23582458 C172.32278984 398.66391329 172.34378699 401.09199862 172.36516571 403.52008057 C172.42010143 409.88050089 172.46963526 416.24095203 172.518013 422.60142517 C172.56843739 429.10393484 172.62401368 435.6064003 172.67914581 442.10887146 C172.78637828 454.84516149 172.88807458 467.58148938 172.98578644 480.31785583 C171.8912254 480.31601225 170.79666437 480.31416866 169.66893482 480.31226921 C142.85952277 480.26758729 116.05011562 480.23487156 89.24067402 480.21423149 C76.27508268 480.20398118 63.30951614 480.19004258 50.34394073 480.16697693 C39.02438627 480.14684938 27.70484979 480.13409423 16.38527793 480.12967885 C10.40873113 480.12710372 4.43223573 480.12118682 -1.54429436 480.10639572 C-35.43833513 480.02579864 -69.21033901 480.52636561 -102.95171356 484.06785583 C-104.15629715 484.19091095 -104.15629715 484.19091095 -105.38521576 484.31645203 C-184.18708487 492.43484853 -267.78314664 511.63846403 -332.01421356 560.31785583 C-332.58832977 560.74920837 -333.16244598 561.18056091 -333.75395966 561.62498474 C-342.66652001 568.35176975 -350.97061797 575.57854876 -359.01421356 583.31785583 C-359.59203583 583.86844666 -360.16985809 584.41903748 -360.76519012 584.98631287 C-369.34770267 593.19618218 -376.9643337 601.76390568 -384.01421356 611.31785583 C-384.44186005 611.89003845 -384.86950653 612.46222107 -385.310112 613.05174255 C-418.87036882 658.08244295 -435.96221054 714.6678725 -436.21733856 770.66160583 C-436.22435287 771.70115417 -436.23136719 772.74070251 -436.23859406 773.81175232 C-436.25599061 777.14716483 -436.26244627 780.48239962 -436.26421356 783.81785583 C-436.26488831 784.95924011 -436.26556305 786.10062439 -436.26625824 787.27659607 C-436.25009956 804.48150926 -435.76588969 821.30041682 -433.01421356 838.31785583 C-432.84260712 839.4230658 -432.67100067 840.52827576 -432.49419403 841.66697693 C-427.4991656 873.15038666 -418.16814982 903.20556097 -403.01421356 931.31785583 C-402.5068869 932.28030212 -402.5068869 932.28030212 -401.98931122 933.26219177 C-393.26351336 949.77177488 -382.44462794 964.42428698 -370.01421356 978.31785583 C-369.1153335 979.33960208 -368.21688261 980.36172607 -367.31890106 981.38426208 C-362.5073264 986.79176572 -357.56856276 991.6892315 -352.01421356 996.31785583 C-351.09382294 997.12609802 -350.17343231 997.93434021 -349.22515106 998.76707458 C-290.82173349 1049.85497904 -210.71436312 1067.61038795 -134.82671356 1067.50535583 C-133.59839813 1067.50444946 -133.59839813 1067.50444946 -132.34526825 1067.50352478 C-70.35249127 1067.38071342 -6.19443039 1056.88309505 48.98578644 1027.31785583 C50.74535675 1026.43807068 50.74535675 1026.43807068 52.54047394 1025.54051208 C101.70418958 1000.77932161 143.92066562 956.76861161 161.98578644 904.31785583 C161.98578644 903.32785583 161.98578644 902.33785583 161.98578644 901.31785583 C174.85578644 901.31785583 187.72578644 901.31785583 200.98578644 901.31785583 C201.31578644 903.62785583 201.64578644 905.93785583 201.98578644 908.31785583 C202.82288119 911.60058687 203.90658368 914.79466035 204.98578644 918.00535583 C205.29266388 918.91873718 205.59954132 919.83211853 205.91571808 920.7731781 C214.84337158 946.65336715 228.2870053 971.20661388 247.54975128 990.84666443 C249.06482587 992.39883027 250.55043458 993.9762712 252.03656769 995.55613708 C263.9992586 1008.09796536 277.63331551 1017.37903753 292.98578644 1025.31785583 C293.59889679 1025.6373822 294.21200714 1025.95690857 294.84369659 1026.28611755 C319.59477799 1039.00403824 346.68245446 1043.49866869 374.26752472 1043.43138123 C375.92077316 1043.43107441 377.57402174 1043.4312092 379.22727013 1043.43174648 C383.62940713 1043.43197099 388.03151661 1043.42620164 392.43364716 1043.41913605 C396.57399323 1043.41341451 400.71433283 1043.41317148 404.85468292 1043.41246033 C416.94005437 1043.40722612 429.02542076 1043.39326487 441.11078644 1043.38035583 C468.12953644 1043.35973083 495.14828644 1043.33910583 522.98578644 1043.31785583 C522.98578644 981.60785583 522.98578644 919.89785583 522.98578644 856.31785583 C490.97578644 856.31785583 458.96578644 856.31785583 425.98578644 856.31785583 C425.99626007 841.55100037 426.0067337 826.7841449 426.01752472 811.56980896 C426.03900992 779.9363872 426.05785726 748.30296684 426.07047272 716.66954041 C426.07074883 715.97895762 426.07102495 715.28837484 426.07130943 714.57686531 C426.07729731 699.56327274 426.08283738 684.54968003 426.0879171 669.53608713 C426.09041145 662.17183943 426.0930046 654.80759176 426.09564972 647.44334412 C426.09591124 646.71057096 426.09617276 645.9777978 426.0964422 645.2228194 C426.10494227 621.53509516 426.11994784 597.84738055 426.13838088 574.15966213 C426.15731202 549.78718807 426.16957254 525.41471932 426.17361642 501.04223802 C426.1741926 497.58804433 426.17484387 494.13385065 426.17554092 490.67965698 C426.17567577 489.99992133 426.17581062 489.32018568 426.17594955 488.61985198 C426.17829933 477.74339704 426.18753815 466.86695869 426.19945051 455.99051048 C426.21131926 445.01640097 426.21553892 434.04230844 426.21278919 423.06819284 C426.21151866 417.13827933 426.21335074 411.20841391 426.22419739 405.27850914 C426.34390529 336.26225218 420.42817964 268.41057918 389.98578644 205.31785583 C389.38540558 204.06802917 389.38540558 204.06802917 388.77289581 202.79295349 C378.47527731 181.62607703 365.37434497 162.11380996 349.98578644 144.31785583 C349.28066925 143.4838324 348.57555206 142.64980896 347.84906769 141.79051208 C336.732919 129.01458481 324.52503472 116.51525863 310.98578644 106.31785583 C309.80152416 105.39423321 308.61798385 104.46968445 307.43500519 103.54441833 C277.9092147 80.68322245 244.14521712 63.61335478 208.98578644 51.31785583 C208.10503448 51.00509705 207.22428253 50.69233826 206.31684113 50.37010193 C148.71151963 29.99854821 85.42528816 21.27678707 24.45063019 21.11473083 C22.81204961 21.10775187 21.17346929 21.1007109 19.53488922 21.09361267 C14.33101818 21.07434569 9.12718927 21.06943765 3.92328644 21.06785583 C3.03813732 21.06726669 2.1529882 21.06667755 1.24101639 21.06607056 C-24.25965057 21.05408232 -49.62829713 21.19057742 -74.99584198 24.0900116 Z " fill="#000000" transform="translate(2521.0142135620117,1888.682144165039)"/>
<path d="M0 0 C97.02 0 194.04 0 294 0 C294 343.2 294 686.4 294 1040 C196.98 1040 99.96 1040 0 1040 C0 696.8 0 353.6 0 0 Z M21 20 C21 349.67 21 679.34 21 1019 C104.16 1019 187.32 1019 273 1019 C273 689.33 273 359.66 273 20 C189.84 20 106.68 20 21 20 Z " fill="#000000" transform="translate(3222,1913)"/>
<path d="M0 0 C1.08571289 0.45415283 1.08571289 0.45415283 2.19335938 0.91748047 C13.57102287 5.76247739 23.89416002 11.89366731 34 19 C34.89017822 19.62334229 34.89017822 19.62334229 35.79833984 20.25927734 C74.07205022 47.53843085 98.65383187 89.46413718 106.84692383 135.3293457 C111.49511395 163.19986175 109.54849499 192.0716655 101 219 C100.75797852 219.76586426 100.51595703 220.53172852 100.26660156 221.32080078 C92.39879248 245.57734731 79.50379393 267.47458386 62 286 C60.84935973 287.35008458 59.7033304 288.70411589 58.5625 290.0625 C30.66723523 321.83387217 -12.90023663 339.46540381 -54.125 343.75 C-56.08172317 343.86510136 -58.04069002 343.94415845 -60 344 C-60.70237793 344.02046387 -61.40475586 344.04092773 -62.12841797 344.06201172 C-103.81221318 345.10217242 -144.76812069 333.67538414 -178 308 C-178.88171875 307.34128906 -179.7634375 306.68257812 -180.671875 306.00390625 C-216.85440488 277.88021257 -241.51620732 235.59406563 -247.46875 190.0625 C-252.90881253 141.94476384 -241.74569972 93.94197956 -211.67553711 55.51220703 C-207.65236842 50.4806919 -203.4336362 45.67192609 -199 41 C-198.55430664 40.5270752 -198.10861328 40.05415039 -197.64941406 39.56689453 C-147.68565261 -13.12309824 -66.41990545 -27.97625078 0 0 Z M-180 52 C-181.19109375 53.09634766 -181.19109375 53.09634766 -182.40625 54.21484375 C-194.43494277 65.65352153 -203.44627932 79.31138613 -211 94 C-211.31807617 94.60634277 -211.63615234 95.21268555 -211.96386719 95.83740234 C-220.12606795 111.55198428 -224.51340033 128.53813216 -227 146 C-227.13148438 146.87269531 -227.26296875 147.74539063 -227.3984375 148.64453125 C-232.26436515 187.24317354 -219.99525255 229.09527876 -196.52734375 259.8671875 C-192.30849199 265.18811338 -187.71459341 270.11916564 -183 275 C-181.70642578 276.38832031 -181.70642578 276.38832031 -180.38671875 277.8046875 C-153.71245031 305.70399642 -114.13138766 322.08780419 -75.73046875 323.203125 C-34.51918485 323.7877347 4.23109858 310.8405508 35 283 C35.84175781 282.278125 36.68351562 281.55625 37.55078125 280.8125 C42.50474714 276.54959154 46.87894296 272.06941745 51 267 C51.76054687 266.07703125 52.52109375 265.1540625 53.3046875 264.203125 C79.85192213 231.30069093 91.73918056 189.42717675 87.49609375 147.4453125 C82.49594445 105.55381777 61.15828174 67.36897557 28.24609375 40.90234375 C24.60677039 38.0994525 20.84625159 35.50939721 17 33 C16.34451172 32.56993652 15.68902344 32.13987305 15.01367188 31.69677734 C-4.42531929 19.14749599 -27.00818967 10.86149883 -50 8 C-50.83917969 7.88914063 -51.67835938 7.77828125 -52.54296875 7.6640625 C-99.70565006 2.38412541 -145.95941223 19.41662917 -180 52 Z " fill="#000000" transform="translate(3439,214)"/>
<path d="M0 0 C1.88366698 0.00028262 3.76733406 0.00012268 5.65100098 -0.0004425 C10.72652537 -0.00072756 15.80202578 0.00512177 20.87754464 0.01213145 C26.19596498 0.01841379 31.51438597 0.01897263 36.83280945 0.02015686 C46.88697489 0.02325585 56.94112936 0.03144982 66.99528998 0.04150635 C78.44881824 0.05271211 89.90234704 0.05818916 101.35587943 0.06320179 C124.90091461 0.07363372 148.44594009 0.09120526 171.9909668 0.11352539 C172.06132163 20.64676742 172.11408383 41.1799847 172.14640331 61.71332264 C172.16181453 71.24918989 172.18279295 80.78498187 172.21728516 90.32080078 C172.24736475 98.64072481 172.26658344 106.96059426 172.27323228 115.28057116 C172.2771134 119.67821847 172.28611178 124.07570979 172.30815697 128.47330666 C172.4737099 162.86533463 169.76267397 196.19689569 148.9909668 225.11352539 C148.28713867 226.11254883 147.58331055 227.11157227 146.8581543 228.14086914 C132.48273229 247.7113694 114.42770087 261.9943509 92.9909668 273.11352539 C92.34498535 273.45480469 91.69900391 273.79608398 91.03344727 274.14770508 C35.53564705 303.15255691 -40.951037 305.92085285 -100.10668945 287.73461914 C-118.92464625 281.664665 -134.97852405 272.01820038 -149.0090332 258.11352539 C-150.13245117 257.06358398 -150.13245117 257.06358398 -151.27856445 255.99243164 C-171.93575716 236.36217394 -182.05074195 205.2233589 -183.11689758 177.28718567 C-183.1733685 174.0870753 -183.19996708 170.88833229 -183.2121582 167.68774414 C-183.21785828 166.50493362 -183.22355835 165.32212311 -183.22943115 164.10346985 C-183.23884301 161.60479617 -183.24539989 159.10611029 -183.24926758 156.60742188 C-183.2589056 152.85076173 -183.28993875 149.09466529 -183.3215332 145.33813477 C-183.40991926 125.37527658 -181.8247691 106.94378673 -175.0090332 88.11352539 C-174.65196289 87.09258789 -174.29489258 86.07165039 -173.92700195 85.01977539 C-168.4937061 70.735775 -159.66409977 58.88177172 -149.0090332 48.11352539 C-148.35547852 47.39938477 -147.70192383 46.68524414 -147.02856445 45.94946289 C-111.34611933 7.75631267 -49.23886284 -0.10433291 0 0 Z M-16.40942383 21.01245117 C-18.31737858 21.1313738 -18.31737858 21.1313738 -20.26387787 21.2526989 C-60.67852002 24.03822313 -100.8863093 33.99718039 -132.0090332 61.11352539 C-132.63422852 61.65364258 -133.25942383 62.19375977 -133.90356445 62.75024414 C-150.70856588 78.37456631 -161.22913459 103.03343136 -162.11532593 125.85025024 C-162.1743746 129.18441342 -162.20010809 132.51713847 -162.2121582 135.85180664 C-162.21785828 137.08658249 -162.22355835 138.32135834 -162.22943115 139.59355164 C-162.2388605 142.2067276 -162.24540691 144.81991534 -162.24926758 147.43310547 C-162.25890676 151.37432497 -162.28992344 155.31500769 -162.3215332 159.25610352 C-162.44355112 188.11836769 -158.67617155 215.59272384 -139.0090332 238.11352539 C-137.84500977 239.57338867 -137.84500977 239.57338867 -136.6574707 241.06274414 C-116.20215952 265.58582878 -79.91533255 273.5428006 -49.7590332 276.36352539 C4.64294869 280.78506671 67.35288532 272.93673209 110.6784668 236.80102539 C136.85562604 214.24742532 149.24828134 184.72330094 151.78707695 150.59833717 C152.1112992 145.05684737 152.12198144 139.52895056 152.10449219 133.97949219 C152.10471123 132.11858948 152.10471123 132.11858948 152.10493469 130.22009277 C152.1043631 126.86350664 152.09939617 123.50698432 152.09236073 120.15040946 C152.08605027 116.62573169 152.08551738 113.10105279 152.08433533 109.57637024 C152.08124446 102.92213492 152.07306176 96.2679163 152.06298584 89.61368829 C152.05175444 82.02949475 152.04629665 74.44530036 152.0412904 66.86110055 C152.03087693 51.27856587 152.01332158 35.6960478 151.9909668 20.11352539 C132.85568617 20.06640803 113.72041762 20.03134489 94.58509064 20.00990105 C85.69643696 19.99967127 76.80781971 19.98577387 67.91918945 19.96264648 C60.15471763 19.94245401 52.39027222 19.92974905 44.62577486 19.9253484 C40.53012085 19.9227838 36.4345423 19.91693922 32.33891296 19.90206528 C16.05972081 19.84538842 -0.15751808 19.99517698 -16.40942383 21.01245117 Z " fill="#000000" transform="translate(2522.009033203125,2494.886474609375)"/>
</svg>
